# xmcd
#
# Track frame offsets: 
#        150
#        15337
#        30454
#        50046
#        65423
#        81599
#        98552
#        117042
#        129687
#        145240
#        165129
#        180713
#
# Disc length: 2626 seconds
#
# Revision: 1
# Processed by: cddbd v1.5.2PL0 Copyright (c) Steve Scherf et al.
# Submitted via: ExactAudioCopy v0.99pb4
#
DISCID=950a400c
DTITLE=Susan Orus - Don't give up
DYEAR=2002
DGENRE=Country
TTITLE0=Don't give up
TTITLE1=That's how it feels
TTITLE2=Even if it breaks my heart
TTITLE3=50 Million Tears
TTITLE4=The way he makes me feel
TTITLE5=Your love amazes me (Duett with John Berry)
TTITLE6=Are you listening to me
TTITLE7=What's wrong with that
TTITLE8=I'm over it
TTITLE9=The way I need you now
TTITLE10=She's gone (Radio mix)
TTITLE11=C'mon (Remix)
EXTD=Musikvertriebs AG, Zürich\nwww.susanneorus.com\n
EXTT0=
EXTT1=
EXTT2=
EXTT3=
EXTT4=
EXTT5=
EXTT6=
EXTT7=
EXTT8=
EXTT9=
EXTT10=
EXTT11=
PLAYORDER=
